# xmcd CD database file
#
# Track frame offsets:
#	150
#	14279
#	34999
#	57103
#	79898
#	112971
#	136465
#	154699
#	171149
#	193479
#	210917
#	241169
#
# Disc length: 4658 seconds
#
# Revision: 0
# Processed by: cddbd v1.5.2PL0 Copyright (c) Steve Scherf et al.
# Submitted via: CDex 1.51
#
DISCID=9b12300c
DTITLE=Nico Wayne Toussaint - Southern Wind Blowin'
DYEAR=2007
DGENRE=Blues
TTITLE0=Put It Down
TTITLE1=Southern Wind
TTITLE2=Ain't No Need
TTITLE3=Long Bab
TTITLE4=Mali Mississippi
TTITLE5=Livin' On The Highway
TTITLE6=Paris Rain
TTITLE7=I'm Moving On
TTITLE8=New Man Out Of Me
TTITLE9=Midnight Rambler
TTITLE10=When Love's Gone
TTITLE11=Data
EXTD=YEAR: 2007
EXTT0=
EXTT1=
EXTT2=
EXTT3=
EXTT4=
EXTT5=
EXTT6=
EXTT7=
EXTT8=
EXTT9=
EXTT10=
EXTT11=
PLAYORDER=
